<?xml version="1.0" standalone="no"?>
<!DOCTYPE svg PUBLIC "-//W3C//DTD SVG 20010904//EN"
 "http://www.w3.org/TR/2001/REC-SVG-20010904/DTD/svg10.dtd">
<svg version="1.0" xmlns="http://www.w3.org/2000/svg"
 width="520.000000pt" height="520.000000pt" viewBox="0 0 520.000000 520.000000"
 preserveAspectRatio="xMidYMid meet">
<metadata>
Created by potrace 1.11, written by Peter Selinger 2001-2013
</metadata>
<g transform="translate(0.000000,520.000000) scale(0.100000,-0.100000)"
fill="#000000" stroke="none">
<path d="M3365 4729 c-146 -13 -291 -75 -399 -169 -58 -51 -132 -163 -165
-249 -46 -120 -54 -196 -48 -481 5 -286 10 -316 79 -460 74 -155 225 -277 403
-325 34 -9 119 -19 195 -22 114 -4 150 -2 230 16 200 45 357 158 432 312 45
92 55 141 33 163 -13 13 -41 16 -146 16 l-130 0 -17 -31 c-41 -75 -79 -115
-142 -147 -164 -82 -387 -55 -504 61 -73 74 -106 156 -122 305 l-6 62 536 0
536 0 12 28 c14 36 -5 332 -27 422 -9 36 -37 106 -61 157 -118 247 -367 371
-689 342z m228 -306 c126 -48 210 -168 224 -320 l6 -63 -377 0 -376 0 0 38 c0
121 87 274 184 324 96 50 241 59 339 21z"/>
<path d="M1541 4714 c-177 -39 -323 -156 -404 -324 -27 -56 -52 -128 -62 -175
-34 -170 -29 -560 10 -710 57 -223 221 -393 435 -451 89 -24 271 -24 360 0 92
25 176 72 237 134 l53 52 0 -82 c0 -227 -61 -342 -209 -399 -69 -27 -230 -37
-312 -20 -119 25 -216 91 -242 164 -5 16 -20 33 -34 38 -33 12 -225 12 -259
-1 -25 -10 -26 -13 -22 -60 3 -30 20 -81 42 -125 101 -204 368 -320 696 -302
333 19 556 175 636 442 17 55 18 128 21 921 3 781 2 863 -12 878 -13 13 -40
16 -145 16 -160 0 -160 0 -160 -110 l0 -79 -50 53 c-96 102 -245 157 -419 155
-53 -1 -125 -7 -160 -15z m389 -307 c39 -14 73 -38 116 -81 97 -97 124 -194
124 -446 -1 -275 -48 -406 -178 -488 -160 -102 -390 -75 -507 60 -85 98 -105
179 -105 433 0 211 7 257 50 348 80 170 302 247 500 174z"/>
<path d="M2796 2764 c-14 -14 -16 -130 -16 -1129 0 -999 2 -1115 16 -1129 12
-13 40 -16 140 -16 69 0 134 5 145 10 18 10 19 24 19 303 l0 292 90 83 89 82
24 -32 c13 -18 129 -186 257 -373 128 -187 240 -346 248 -352 11 -9 61 -13
168 -13 125 0 155 3 168 16 9 8 16 19 16 24 0 9 1 7 -365 540 -149 217 -274
400 -278 407 -4 7 111 131 293 316 165 168 300 312 300 319 0 34 -22 38 -190
37 l-165 -1 -325 -335 -325 -336 -3 638 c-1 451 -5 642 -13 652 -18 21 -272
19 -293 -3z"/>
<path d="M1575 2165 c-290 -63 -484 -283 -526 -596 -16 -120 -7 -485 15 -579
24 -103 94 -243 155 -312 54 -59 141 -120 228 -156 168 -71 446 -72 624 -2
175 69 305 204 352 367 24 82 16 87 -137 91 -142 4 -136 7 -199 -93 -104 -162
-446 -179 -600 -29 -75 73 -127 201 -127 311 l0 53 524 0 c464 0 526 2 540 16
13 12 16 40 16 134 0 293 -62 481 -205 626 -82 84 -196 145 -313 169 -89 18
-264 18 -347 0z m324 -297 c67 -25 137 -93 170 -163 27 -57 50 -145 51 -192
l0 -33 -380 0 -380 0 0 25 c0 90 50 215 115 284 97 103 271 136 424 79z"/>
</g>
</svg>
